<?xml version="1.0" encoding="utf-8"?>
<!-- Generator: Adobe Illustrator 24.0.1, SVG Export Plug-In . SVG Version: 6.00 Build 0)  -->
<svg version="1.1" id="Camada_1" xmlns="http://www.w3.org/2000/svg" xmlns:xlink="http://www.w3.org/1999/xlink" x="0px" y="0px"
	 viewBox="0 0 24 24" style="enable-background:new 0 0 24 24;" xml:space="preserve" fill="#E42313">
<g>
	<g>
		<path d="M10.8,21.6C4.8,21.6,0,16.7,0,10.8C0,4.8,4.8,0,10.8,0c5.9,0,10.8,4.8,10.8,10.8C21.6,16.7,16.7,21.6,10.8,21.6z M10.8,2
			C5.9,2,2,5.9,2,10.8c0,4.8,3.9,8.8,8.8,8.8c4.8,0,8.8-3.9,8.8-8.8C19.5,5.9,15.6,2,10.8,2z"/>
	</g>
	<g>
		<path d="M23,24c-0.3,0-0.5-0.1-0.7-0.3L17,18.4c-0.4-0.4-0.4-1,0-1.4c0.4-0.4,1-0.4,1.4,0l5.3,5.3c0.4,0.4,0.4,1,0,1.4
			C23.5,23.9,23.2,24,23,24z"/>
	</g>
</g>
</svg>
